# xmcd CD database file
#
# Track frame offsets:
#	182
#	18497
#	36650
#	52322
#	71992
#	86620
#	101792
#	123145
#	138205
#	156162
#	175790
#
# Disc length: 2558 seconds
#
# Revision: 0
# Processed by: cddbd v1.5.1PL0 Copyright (c) Steve Scherf et al.
# Submitted via: CDex 1.51
#
DISCID=9d09fc0b
DTITLE=Phyllis Horne - Nouveau Torch
DYEAR=1994
DGENRE=Jazz
TTITLE0=Fool's Gold
TTITLE1=Carry the Torch
TTITLE2=Around Midnight
TTITLE3=(I won't live in) Stormy Weather
TTITLE4=Dreaming of You
TTITLE5=I Deserve Better
TTITLE6=Your Definition of Love
TTITLE7=Misbehaving Hearts
TTITLE8=Kiss a Girl
TTITLE9=Love Doesn't
TTITLE10=The Thing with Dennis (who ain't around)
EXTD=YEAR: 1994
EXTT0=
EXTT1=
EXTT2=
EXTT3=
EXTT4=
EXTT5=
EXTT6=
EXTT7=
EXTT8=
EXTT9=
EXTT10=
PLAYORDER=
